<svg xmlns="http://www.w3.org/2000/svg" xmlns:xlink="http://www.w3.org/1999/xlink" width="800" zoomAndPan="magnify" viewBox="0 0 600 599.999999" height="800" preserveAspectRatio="xMidYMid meet" version="1.0"><defs><g/></defs><path fill="#000000" d="M 166.59375 349.429688 C 165.132812 348.949219 163.601562 348.609375 162.015625 348.417969 C 149.289062 346.90625 137.738281 356.023438 136.230469 368.765625 C 135.109375 378.21875 138.636719 384.589844 143.53125 389.285156 C 146.441406 392.070312 150.265625 394.355469 154.996094 395.484375 C 158.195312 396.238281 162.945312 396.125 165.214844 395.980469 C 165.214844 395.980469 244.828125 393.175781 244.828125 393.175781 C 267.300781 392.277344 289.714844 392.015625 312.117188 392.101562 C 346.097656 392.238281 380.042969 393.175781 414.140625 393.953125 C 426.953125 394.25 437.589844 384.074219 437.878906 371.25 C 438.175781 358.425781 428.011719 347.777344 415.199219 347.480469 C 380.8125 346.695312 346.570312 345.75 312.296875 345.617188 C 289.222656 345.527344 266.128906 345.800781 242.96875 346.730469 Z M 180.996094 363.261719 C 182.144531 366.269531 182.671875 369.558594 182.457031 372.957031 C 182.726562 369.199219 182.140625 366.011719 180.996094 363.261719 Z M 180.996094 363.261719 " fill-opacity="1" fill-rule="evenodd"/><path fill="#000000" d="M 405.769531 371.78125 L 400.082031 375.65625 C 380.242188 389.460938 355.222656 401.917969 334.902344 418.011719 C 324.324219 426.382812 314.917969 435.683594 307.523438 446.265625 C 300.171875 456.777344 302.726562 471.28125 313.226562 478.636719 C 323.722656 485.992188 338.214844 483.4375 345.566406 472.925781 C 352.183594 463.457031 361.429688 455.773438 371.421875 448.722656 C 389.472656 435.996094 409.921875 425.421875 426.59375 413.820312 C 429.976562 411.464844 452.273438 397.503906 458.316406 389.273438 C 464.925781 380.253906 464.828125 371.464844 462.816406 365.136719 C 462.101562 362.871094 457.84375 355.269531 448.214844 346.839844 C 431.230469 331.957031 390.378906 300.378906 374.703125 283.195312 C 374.226562 282.679688 373.660156 282.007812 373.1875 281.4375 C 370.484375 273.140625 363.203125 266.714844 353.996094 265.5625 C 341.277344 263.96875 329.664062 273.011719 328.070312 285.742188 C 327.429688 290.898438 329.441406 302.523438 340.417969 314.554688 C 353.929688 329.367188 384.902344 354.433594 405.769531 371.78125 Z M 405.769531 371.78125 " fill-opacity="1" fill-rule="evenodd"/><path stroke-linecap="butt" transform="matrix(1.422119, 0, 0, 1.422119, -155.078211, 124.829547)" fill="none" stroke-linejoin="miter" d="M 243.125843 55.302679 C 240.571337 55.302679 238.294256 54.907143 236.2946 54.118817 C 234.311424 53.327744 232.539751 52.421306 230.976833 51.39401 C 229.430395 50.35298 228.035031 49.438303 226.793486 48.64723 C 225.565675 47.858904 224.365332 47.463367 223.186963 47.463367 C 222.297006 47.463367 221.607564 47.740792 221.121384 48.295642 C 220.648938 48.850492 220.415461 49.504225 220.415461 50.262337 C 220.415461 51.352809 220.036406 52.421306 219.281041 53.462336 C 218.525677 54.486885 217.248424 55.000533 215.449282 55.000533 C 214.139068 55.000533 212.971686 54.572035 211.94439 53.71504 C 210.903361 52.858044 210.381472 51.286886 210.381472 49.001564 C 210.381472 47.488088 210.711086 45.598303 211.36482 43.329463 C 212.0213 41.060622 213.273832 38.67367 215.122415 36.171353 C 216.987479 33.649808 219.709539 31.356247 223.288594 29.287921 C 229.490824 25.642943 234.564128 22.423716 238.513998 19.632987 C 242.480349 16.845005 245.386443 14.213589 247.235026 11.744234 C 249.10009 9.255651 250.033996 6.745093 250.033996 4.207068 C 250.033996 2.342004 249.528588 0.779086 248.52052 -0.481686 C 247.528932 -1.758939 245.933052 -2.396192 243.732881 -2.396192 C 241.664555 -2.396192 239.791251 -1.808381 238.110221 -0.632759 C 236.429192 0.526382 235.278291 1.99591 234.657518 3.77857 C 234.237261 4.954192 233.665931 5.835909 232.943527 6.426467 C 232.221124 7.014278 231.48224 7.308183 230.724129 7.308183 C 229.564987 7.308183 228.532198 6.651703 227.623014 5.341488 C 226.733057 4.031274 226.634173 1.795395 227.320868 -1.363403 C 228.279494 -5.362715 229.825931 -8.908809 231.96018 -12.001684 C 234.094428 -15.111039 236.758805 -17.555674 239.950564 -19.338334 C 243.161551 -21.134729 246.798288 -22.032926 250.86627 -22.032926 C 256.444981 -22.032926 260.949701 -20.461768 264.377683 -17.319451 C 267.822146 -14.193615 269.544378 -9.842714 269.544378 -4.264003 C 269.544378 -0.0614289 268.577511 3.729128 266.646524 7.104921 C 264.729271 10.466981 262.276396 13.474705 259.285152 16.130842 C 256.293908 18.784232 253.11039 21.162944 249.73185 23.264231 C 246.35331 25.346291 243.169791 27.222342 240.178547 28.884144 C 237.187303 30.532212 234.792111 32.045688 232.992969 33.421825 C 232.303528 33.976675 231.976661 34.597447 232.009622 35.286889 C 232.04533 35.976331 232.320008 36.457018 232.841896 36.723456 C 233.363785 36.99264 233.968076 36.783885 234.657518 36.094443 C 235.967733 34.73204 237.445501 33.60586 239.093569 32.715903 C 240.741637 31.809465 242.741293 31.356247 245.092538 31.356247 C 247.144383 31.356247 248.841893 31.617191 250.185069 32.136332 C 251.528244 32.64174 252.681892 33.070238 253.637772 33.421825 C 254.612879 33.759679 255.511076 33.759679 256.33511 33.421825 C 257.159144 33.070238 258.126011 32.070409 259.23571 30.422341 C 259.63674 29.801569 260.18335 29.471955 260.872791 29.438994 C 261.562233 29.406032 262.166525 29.614788 262.688413 30.070753 C 263.210302 30.507491 263.325666 31.144744 263.040001 31.985259 C 260.705238 40.590923 257.898028 46.631093 254.621119 50.108517 C 251.360691 53.572207 247.528932 55.302679 243.125843 55.302679 Z M 288.247206 54.698387 C 284.047379 54.698387 280.602916 53.580448 277.913818 51.344568 C 275.22472 49.092208 273.241544 46.076243 271.964291 42.296673 C 270.703519 38.514356 270.074506 34.278821 270.074506 29.590067 C 270.074506 25.186978 270.621115 20.599854 271.711587 15.828696 C 272.821287 11.038311 274.425406 6.407239 276.526694 1.938227 C 278.627981 -2.550012 281.174246 -6.598766 284.16549 -10.210783 C 287.156734 -13.825546 290.524287 -16.698678 294.273642 -18.832927 C 298.036732 -20.967175 302.121194 -22.032926 306.524283 -22.032926 C 310.573038 -22.032926 313.849947 -20.950695 316.355011 -18.783485 C 318.876555 -16.613528 320.741619 -13.699194 321.950203 -10.034989 C 323.161533 -6.390011 323.765825 -2.264347 323.765825 2.342004 C 323.765825 6.676424 323.194494 11.255307 322.051834 16.078653 C 320.925654 20.902 319.296813 25.582514 317.162564 30.120195 C 315.028316 34.657877 312.490291 38.791781 309.548489 42.521909 C 306.625914 46.235556 303.357245 49.193839 299.742482 51.39401 C 296.130466 53.596928 292.298707 54.698387 288.247206 54.698387 Z M 294.020939 30.625603 C 296.575444 30.625603 298.954156 29.614788 301.154328 27.598651 C 303.357245 25.566033 305.128919 22.918137 306.472095 19.657708 C 307.818017 16.380799 308.414068 12.878654 308.262995 9.148526 C 308.06248 2.273335 305.516215 -1.162888 300.624199 -1.162888 C 298.424028 -1.162888 296.407891 -0.506407 294.575788 0.803807 C 292.760166 2.097541 291.213729 3.795051 289.936476 5.896338 C 288.675704 7.997625 287.703343 10.307668 287.013902 12.826465 C 286.32446 15.331529 286.014073 17.792644 286.079996 20.212558 C 286.214588 23.305433 286.953472 25.818737 288.299395 27.749724 C 289.64257 29.666976 291.551583 30.625603 294.020939 30.625603 Z M 343.171829 55.201048 C 338.082045 55.201048 333.964621 54.311091 330.819557 52.528431 C 327.696468 50.732036 325.427627 48.463195 324.015782 45.724655 C 322.603936 42.966888 321.898014 40.101996 321.898014 37.127232 C 321.898014 34.388692 322.408915 31.817706 323.436211 29.414273 C 324.477241 26.994359 325.889086 25.027664 327.669 23.516935 C 329.468141 22.003459 331.467797 21.248094 333.670715 21.248094 C 335.670371 21.248094 336.670199 21.934789 336.670199 23.313673 C 336.670199 23.783373 336.543847 24.346463 336.291144 25.002943 C 336.054921 25.659424 335.936809 26.574102 335.936809 27.749724 C 335.936809 29.883972 336.642732 31.573242 338.054577 32.817534 C 339.466422 34.045345 341.416636 34.657877 343.902472 34.657877 C 346.643759 34.657877 348.92084 33.800881 350.733716 32.08689 C 352.565818 30.356418 353.483243 28.288093 353.483243 25.88466 C 353.483243 23.953673 352.843243 22.423716 351.56599 21.297536 C 350.305218 20.154876 348.676377 19.583545 346.676721 19.583545 C 345.297837 19.583545 344.196378 19.240198 343.375091 18.550756 C 342.551056 17.861314 342.139039 16.971357 342.139039 15.878138 C 342.139039 14.768439 342.551056 13.83728 343.375091 13.079169 C 344.196378 12.323804 345.330798 11.944749 346.778352 11.944749 C 350.222814 11.944749 353.062985 11.123461 355.296118 9.475393 C 357.531997 7.810844 358.649937 5.709557 358.649937 3.174279 C 358.649937 1.105953 358.029165 -0.506407 356.784873 -1.665549 C 355.557062 -2.843918 353.843071 -3.431729 351.6429 -3.431729 C 346.954146 -3.431729 343.820069 -1.028296 342.24067 3.77857 C 341.482559 6.129814 340.172345 7.308183 338.307281 7.308183 C 337.148139 7.308183 336.222474 6.778055 335.535779 5.720544 C 334.846337 4.643806 334.500243 3.174279 334.500243 1.309215 C 334.500243 -2.959282 335.601702 -6.85147 337.80462 -10.361856 C 340.004791 -13.874988 342.910885 -16.698678 346.525648 -18.832927 C 350.137664 -20.967175 354.112256 -22.032926 358.449422 -22.032926 C 364.094056 -22.032926 368.615257 -20.513956 372.010277 -17.470524 C 375.421779 -14.446318 377.127529 -10.422285 377.127529 -5.398423 C 377.127529 -0.792072 375.548131 3.231961 372.389333 6.676424 C 369.227789 10.120886 365.102124 12.433676 360.01234 13.609298 C 358.482383 13.944405 357.716032 14.559684 357.716032 15.449641 C 357.716032 16.139083 358.306589 16.658224 359.482211 17.012559 C 362.506417 17.767923 364.843927 19.457193 366.489249 22.077622 C 368.153797 24.684317 368.986072 27.843114 368.986072 31.556761 C 368.986072 36.314185 367.868132 40.464571 365.632253 44.010664 C 363.396374 47.554011 360.347447 50.311779 356.482727 52.278474 C 352.634488 54.225941 348.198437 55.201048 343.171829 55.201048 Z M 395.319457 54.698387 C 391.116882 54.698387 387.67242 53.580448 384.983322 51.344568 C 382.294224 49.092208 380.311048 46.076243 379.033795 42.296673 C 377.773023 38.514356 377.14401 34.278821 377.14401 29.590067 C 377.14401 25.186978 377.690619 20.599854 378.783838 15.828696 C 379.890791 11.038311 381.497657 6.407239 383.596197 1.938227 C 385.697485 -2.550012 388.24375 -6.598766 391.234994 -10.210783 C 394.226238 -13.825546 397.596538 -16.698678 401.343146 -18.832927 C 405.108982 -20.967175 409.190698 -22.032926 413.593787 -22.032926 C 417.645289 -22.032926 420.922198 -20.950695 423.424515 -18.783485 C 425.946059 -16.613528 427.811123 -13.699194 429.022453 -10.034989 C 430.231037 -6.390011 430.835329 -2.264347 430.835329 2.342004 C 430.835329 6.676424 430.263998 11.255307 429.121337 16.078653 C 427.995157 20.902 426.366317 25.582514 424.232068 30.120195 C 422.09782 34.657877 419.559795 38.791781 416.617993 42.521909 C 413.695418 46.235556 410.426749 49.193839 406.811986 51.39401 C 403.19997 53.596928 399.368211 54.698387 395.319457 54.698387 Z M 401.090442 30.625603 C 403.644948 30.625603 406.02366 29.614788 408.223831 27.598651 C 410.426749 25.566033 412.198423 22.918137 413.544345 19.657708 C 414.887521 16.380799 415.483572 12.878654 415.332499 9.148526 C 415.131984 2.273335 412.585719 -1.162888 407.69645 -1.162888 C 405.493532 -1.162888 403.477395 -0.506407 401.645292 0.803807 C 399.82967 2.097541 398.28598 3.795051 397.008727 5.896338 C 395.747954 7.997625 394.772847 10.307668 394.083405 12.826465 C 393.393964 15.331529 393.083577 17.792644 393.152247 20.212558 C 393.284092 23.305433 394.025723 25.818737 395.368899 27.749724 C 396.714821 29.666976 398.621087 30.625603 401.090442 30.625603 Z M 401.090442 30.625603 " stroke="#000000" stroke-width="13.164885" stroke-opacity="1" stroke-miterlimit="4"/><g fill="#ffffff" fill-opacity="1"><g transform="translate(148.233205, 203.046117)"><g><path d="M 42.4375 0.4375 C 38.8125 0.4375 35.578125 -0.125 32.734375 -1.25 C 29.898438 -2.375 27.378906 -3.671875 25.171875 -5.140625 C 22.972656 -6.609375 20.992188 -7.90625 19.234375 -9.03125 C 17.472656 -10.15625 15.757812 -10.71875 14.09375 -10.71875 C 12.820312 -10.71875 11.84375 -10.328125 11.15625 -9.546875 C 10.46875 -8.765625 10.125 -7.832031 10.125 -6.75 C 10.125 -5.1875 9.585938 -3.671875 8.515625 -2.203125 C 7.441406 -0.734375 5.628906 0 3.078125 0 C 1.222656 0 -0.4375 -0.609375 -1.90625 -1.828125 C -3.375 -3.054688 -4.109375 -5.285156 -4.109375 -8.515625 C -4.109375 -10.671875 -3.644531 -13.363281 -2.71875 -16.59375 C -1.789062 -19.820312 -0.00390625 -23.222656 2.640625 -26.796875 C 5.285156 -30.367188 9.15625 -33.625 14.25 -36.5625 C 23.050781 -41.75 30.265625 -46.320312 35.890625 -50.28125 C 41.523438 -54.25 45.660156 -57.992188 48.296875 -61.515625 C 50.941406 -65.046875 52.265625 -68.617188 52.265625 -72.234375 C 52.265625 -74.878906 51.554688 -77.109375 50.140625 -78.921875 C 48.722656 -80.734375 46.445312 -81.640625 43.3125 -81.640625 C 40.375 -81.640625 37.707031 -80.804688 35.3125 -79.140625 C 32.914062 -77.472656 31.273438 -75.367188 30.390625 -72.828125 C 29.804688 -71.160156 29 -69.910156 27.96875 -69.078125 C 26.9375 -68.242188 25.882812 -67.828125 24.8125 -67.828125 C 23.144531 -67.828125 21.675781 -68.757812 20.40625 -70.625 C 19.132812 -72.488281 18.988281 -75.671875 19.96875 -80.171875 C 21.34375 -85.847656 23.546875 -90.890625 26.578125 -95.296875 C 29.609375 -99.703125 33.398438 -103.175781 37.953125 -105.71875 C 42.503906 -108.257812 47.671875 -109.53125 53.453125 -109.53125 C 61.378906 -109.53125 67.785156 -107.300781 72.671875 -102.84375 C 77.566406 -98.394531 80.015625 -92.207031 80.015625 -84.28125 C 80.015625 -78.3125 78.644531 -72.925781 75.90625 -68.125 C 73.164062 -63.332031 69.664062 -59.050781 65.40625 -55.28125 C 61.15625 -51.507812 56.628906 -48.128906 51.828125 -45.140625 C 47.035156 -42.160156 42.507812 -39.492188 38.25 -37.140625 C 33.988281 -34.796875 30.585938 -32.644531 28.046875 -30.6875 C 27.066406 -29.90625 26.597656 -29.023438 26.640625 -28.046875 C 26.691406 -27.066406 27.082031 -26.378906 27.8125 -25.984375 C 28.550781 -25.597656 29.410156 -25.894531 30.390625 -26.875 C 32.253906 -28.832031 34.359375 -30.445312 36.703125 -31.71875 C 39.054688 -32.988281 41.894531 -33.625 45.21875 -33.625 C 48.15625 -33.625 50.578125 -33.253906 52.484375 -32.515625 C 54.398438 -31.785156 56.039062 -31.175781 57.40625 -30.6875 C 58.78125 -30.195312 60.050781 -30.195312 61.21875 -30.6875 C 62.394531 -31.175781 63.769531 -32.59375 65.34375 -34.9375 C 65.925781 -35.820312 66.707031 -36.285156 67.6875 -36.328125 C 68.664062 -36.378906 69.519531 -36.085938 70.25 -35.453125 C 70.988281 -34.816406 71.160156 -33.914062 70.765625 -32.75 C 67.441406 -20.507812 63.453125 -11.914062 58.796875 -6.96875 C 54.148438 -2.03125 48.695312 0.4375 42.4375 0.4375 Z M 42.4375 0.4375 "/></g></g></g><g fill="#ffffff" fill-opacity="1"><g transform="translate(221.650144, 203.046117)"><g><path d="M 33.1875 -0.4375 C 27.21875 -0.4375 22.320312 -2.023438 18.5 -5.203125 C 14.6875 -8.390625 11.875 -12.675781 10.0625 -18.0625 C 8.25 -23.445312 7.34375 -29.46875 7.34375 -36.125 C 7.34375 -42.382812 8.125 -48.914062 9.6875 -55.71875 C 11.257812 -62.519531 13.535156 -69.101562 16.515625 -75.46875 C 19.503906 -81.832031 23.125 -87.582031 27.375 -92.71875 C 31.632812 -97.863281 36.429688 -101.953125 41.765625 -104.984375 C 47.109375 -108.015625 52.910156 -109.53125 59.171875 -109.53125 C 64.941406 -109.53125 69.613281 -107.988281 73.1875 -104.90625 C 76.757812 -101.820312 79.398438 -97.6875 81.109375 -92.5 C 82.828125 -87.3125 83.6875 -81.4375 83.6875 -74.875 C 83.6875 -68.707031 82.878906 -62.195312 81.265625 -55.34375 C 79.648438 -48.5 77.328125 -41.84375 74.296875 -35.375 C 71.265625 -28.914062 67.664062 -23.046875 63.5 -17.765625 C 59.34375 -12.484375 54.691406 -8.273438 49.546875 -5.140625 C 44.410156 -2.003906 38.957031 -0.4375 33.1875 -0.4375 Z M 41.40625 -34.65625 C 45.03125 -34.65625 48.40625 -36.097656 51.53125 -38.984375 C 54.664062 -41.867188 57.1875 -45.632812 59.09375 -50.28125 C 61.007812 -54.9375 61.867188 -59.90625 61.671875 -65.1875 C 61.378906 -74.976562 57.753906 -79.875 50.796875 -79.875 C 47.671875 -79.875 44.8125 -78.941406 42.21875 -77.078125 C 39.625 -75.222656 37.421875 -72.800781 35.609375 -69.8125 C 33.796875 -66.832031 32.398438 -63.554688 31.421875 -59.984375 C 30.441406 -56.410156 30 -52.910156 30.09375 -49.484375 C 30.289062 -45.078125 31.34375 -41.503906 33.25 -38.765625 C 35.164062 -36.023438 37.882812 -34.65625 41.40625 -34.65625 Z M 41.40625 -34.65625 "/></g></g></g><g fill="#ffffff" fill-opacity="1"><g transform="translate(299.472103, 203.046117)"><g><path d="M 33.484375 0.296875 C 26.234375 0.296875 20.378906 -0.972656 15.921875 -3.515625 C 11.472656 -6.066406 8.242188 -9.300781 6.234375 -13.21875 C 4.234375 -17.132812 3.234375 -21.195312 3.234375 -25.40625 C 3.234375 -29.320312 3.96875 -32.988281 5.4375 -36.40625 C 6.90625 -39.832031 8.910156 -42.625 11.453125 -44.78125 C 13.992188 -46.9375 16.832031 -48.015625 19.96875 -48.015625 C 22.8125 -48.015625 24.234375 -47.035156 24.234375 -45.078125 C 24.234375 -44.390625 24.0625 -43.582031 23.71875 -42.65625 C 23.375 -41.726562 23.203125 -40.429688 23.203125 -38.765625 C 23.203125 -35.734375 24.203125 -33.332031 26.203125 -31.5625 C 28.210938 -29.800781 30.976562 -28.921875 34.5 -28.921875 C 38.414062 -28.921875 41.671875 -30.144531 44.265625 -32.59375 C 46.859375 -35.039062 48.15625 -37.976562 48.15625 -41.40625 C 48.15625 -44.144531 47.25 -46.320312 45.4375 -47.9375 C 43.632812 -49.550781 41.3125 -50.359375 38.46875 -50.359375 C 36.507812 -50.359375 34.941406 -50.847656 33.765625 -51.828125 C 32.597656 -52.804688 32.015625 -54.078125 32.015625 -55.640625 C 32.015625 -57.210938 32.597656 -58.535156 33.765625 -59.609375 C 34.941406 -60.691406 36.554688 -61.234375 38.609375 -61.234375 C 43.503906 -61.234375 47.539062 -62.40625 50.71875 -64.75 C 53.90625 -67.101562 55.5 -70.085938 55.5 -73.703125 C 55.5 -76.640625 54.617188 -78.941406 52.859375 -80.609375 C 51.097656 -82.273438 48.648438 -83.109375 45.515625 -83.109375 C 38.859375 -83.109375 34.40625 -79.679688 32.15625 -72.828125 C 31.082031 -69.492188 29.222656 -67.828125 26.578125 -67.828125 C 24.910156 -67.828125 23.585938 -68.585938 22.609375 -70.109375 C 21.628906 -71.628906 21.140625 -73.707031 21.140625 -76.34375 C 21.140625 -82.414062 22.707031 -87.945312 25.84375 -92.9375 C 28.976562 -97.9375 33.113281 -101.953125 38.25 -104.984375 C 43.382812 -108.015625 49.035156 -109.53125 55.203125 -109.53125 C 63.234375 -109.53125 69.671875 -107.375 74.515625 -103.0625 C 79.359375 -98.757812 81.78125 -93.035156 81.78125 -85.890625 C 81.78125 -79.335938 79.53125 -73.613281 75.03125 -68.71875 C 70.53125 -63.820312 64.65625 -60.539062 57.40625 -58.875 C 55.25 -58.382812 54.171875 -57.503906 54.171875 -56.234375 C 54.171875 -55.253906 55.003906 -54.519531 56.671875 -54.03125 C 60.984375 -52.957031 64.3125 -50.5625 66.65625 -46.84375 C 69.007812 -43.125 70.1875 -38.617188 70.1875 -33.328125 C 70.1875 -26.578125 68.59375 -20.679688 65.40625 -15.640625 C 62.226562 -10.597656 57.894531 -6.679688 52.40625 -3.890625 C 46.925781 -1.097656 40.617188 0.296875 33.484375 0.296875 Z M 33.484375 0.296875 "/></g></g></g><g fill="#ffffff" fill-opacity="1"><g transform="translate(373.916875, 203.046117)"><g><path d="M 33.1875 -0.4375 C 27.21875 -0.4375 22.320312 -2.023438 18.5 -5.203125 C 14.6875 -8.390625 11.875 -12.675781 10.0625 -18.0625 C 8.25 -23.445312 7.34375 -29.46875 7.34375 -36.125 C 7.34375 -42.382812 8.125 -48.914062 9.6875 -55.71875 C 11.257812 -62.519531 13.535156 -69.101562 16.515625 -75.46875 C 19.503906 -81.832031 23.125 -87.582031 27.375 -92.71875 C 31.632812 -97.863281 36.429688 -101.953125 41.765625 -104.984375 C 47.109375 -108.015625 52.910156 -109.53125 59.171875 -109.53125 C 64.941406 -109.53125 69.613281 -107.988281 73.1875 -104.90625 C 76.757812 -101.820312 79.398438 -97.6875 81.109375 -92.5 C 82.828125 -87.3125 83.6875 -81.4375 83.6875 -74.875 C 83.6875 -68.707031 82.878906 -62.195312 81.265625 -55.34375 C 79.648438 -48.5 77.328125 -41.84375 74.296875 -35.375 C 71.265625 -28.914062 67.664062 -23.046875 63.5 -17.765625 C 59.34375 -12.484375 54.691406 -8.273438 49.546875 -5.140625 C 44.410156 -2.003906 38.957031 -0.4375 33.1875 -0.4375 Z M 41.40625 -34.65625 C 45.03125 -34.65625 48.40625 -36.097656 51.53125 -38.984375 C 54.664062 -41.867188 57.1875 -45.632812 59.09375 -50.28125 C 61.007812 -54.9375 61.867188 -59.90625 61.671875 -65.1875 C 61.378906 -74.976562 57.753906 -79.875 50.796875 -79.875 C 47.671875 -79.875 44.8125 -78.941406 42.21875 -77.078125 C 39.625 -75.222656 37.421875 -72.800781 35.609375 -69.8125 C 33.796875 -66.832031 32.398438 -63.554688 31.421875 -59.984375 C 30.441406 -56.410156 30 -52.910156 30.09375 -49.484375 C 30.289062 -45.078125 31.34375 -41.503906 33.25 -38.765625 C 35.164062 -36.023438 37.882812 -34.65625 41.40625 -34.65625 Z M 41.40625 -34.65625 "/></g></g></g></svg>